<svg width="91" height="91" viewBox="0 0 91 91" fill="none" xmlns="http://www.w3.org/2000/svg">
<path d="M78.5786 57.7899C77.5431 56.8081 76.1825 56.2416 74.7562 56.1983C73.3299 56.155 71.9375 56.6379 70.8443 57.5551L58.9586 66.6662C58.2838 67.182 57.5372 67.5963 56.7424 67.8959C57.179 67.0456 57.3896 66.0972 57.3539 65.142C57.3182 64.1868 57.0375 63.2567 56.5388 62.4413C56.04 61.6258 55.3399 60.9523 54.5057 60.4855C53.6716 60.0187 52.7314 59.7742 51.7755 59.7756H37.6539C36.5541 58.4284 35.1976 57.3131 33.6632 56.4944C32.1289 55.6757 30.4472 55.1699 28.7158 55.0063C26.5493 54.8159 24.3731 55.2412 22.4376 56.2332V51.6439C22.4377 51.4823 22.4059 51.3223 22.3441 51.1729C22.2823 51.0236 22.1917 50.8879 22.0774 50.7736C21.9631 50.6594 21.8275 50.5687 21.6781 50.5069C21.5288 50.4451 21.3688 50.4134 21.2071 50.4134H11.3838C11.2222 50.4134 11.0621 50.4451 10.9128 50.5069C10.7635 50.5687 10.6278 50.6594 10.5135 50.7736C10.3992 50.8879 10.3086 51.0236 10.2468 51.1729C10.185 51.3223 10.1532 51.4823 10.1533 51.6439V83.6677C10.1532 83.8294 10.185 83.9894 10.2468 84.1387C10.3086 84.2881 10.3992 84.4237 10.5135 84.538C10.6278 84.6523 10.7635 84.7429 10.9128 84.8047C11.0621 84.8665 11.2222 84.8983 11.3838 84.8982H21.2071C21.3688 84.8983 21.5288 84.8665 21.6781 84.8047C21.8275 84.7429 21.9631 84.6523 22.0774 84.538C22.1917 84.4237 22.2823 84.2881 22.3441 84.1387C22.4059 83.9894 22.4377 83.8294 22.4376 83.6677V81.1147L42.4816 85.0712C46.0849 85.7925 49.8052 85.6817 53.3592 84.7474C56.9132 83.8131 60.207 82.0798 62.9896 79.6796L78.3832 66.4806C79.0055 65.9466 79.5085 65.2877 79.8593 64.5465C80.2101 63.8054 80.401 62.9986 80.4194 62.1788C80.4379 61.3591 80.2835 60.5446 79.9663 59.7884C79.6492 59.0322 79.1763 58.3513 78.5786 57.7899ZM19.9767 82.4373H12.6143V52.8744H19.9767V82.4373ZM76.7793 64.6145L61.3872 77.8121C58.8865 79.9688 55.9265 81.5263 52.7327 82.366C49.539 83.2056 46.1957 83.3053 42.9576 82.6574L22.4376 78.606V59.1357C24.1905 57.8559 26.35 57.2594 28.5112 57.4581C30.5207 57.6254 33.4739 58.5127 36.1246 61.7802C36.2399 61.9225 36.3856 62.0372 36.5509 62.1161C36.7162 62.1949 36.897 62.2358 37.0802 62.2358H51.7755C52.6016 62.2358 53.3939 62.564 53.978 63.1481C54.5622 63.7323 54.8904 64.5245 54.8904 65.3506C54.8904 66.1767 54.5622 66.969 53.978 67.5532C53.3939 68.1373 52.6016 68.4655 51.7755 68.4655C51.7636 68.4655 51.753 68.4655 51.7411 68.4655H37.0746C36.7482 68.4655 36.4353 68.5951 36.2045 68.8259C35.9737 69.0566 35.8441 69.3696 35.8441 69.696C35.8441 70.0223 35.9737 70.3353 36.2045 70.566C36.4353 70.7968 36.7482 70.9264 37.0746 70.9264H53.6318C56.0961 70.923 58.4916 70.1127 60.4521 68.6195L72.3834 59.4676C73.0658 58.8851 73.9517 58.5976 74.8461 58.6683C75.7405 58.739 76.5702 59.162 77.1527 59.8445C77.7352 60.5269 78.0227 61.4128 77.952 62.3072C77.8813 63.2016 77.4582 64.0313 76.7758 64.6138L76.7793 64.6145Z" fill="white"/>
<path d="M39.7607 47.3752H45.2451C45.2824 47.3752 45.3181 47.3901 45.3445 47.4164C45.3709 47.4428 45.3857 47.4786 45.3857 47.5159V53.0002C45.3857 53.6902 45.6598 54.3519 46.1477 54.8398C46.6356 55.3277 47.2973 55.6018 47.9872 55.6018H50.8771C51.2187 55.6018 51.557 55.5345 51.8727 55.4038C52.1883 55.273 52.4751 55.0814 52.7167 54.8398C52.9583 54.5982 53.1499 54.3115 53.2806 53.9958C53.4114 53.6802 53.4787 53.3419 53.4787 53.0002V47.5159C53.4787 47.4786 53.4935 47.4428 53.5198 47.4164C53.5462 47.3901 53.582 47.3752 53.6193 47.3752H59.1037C59.7936 47.3752 60.4553 47.1012 60.9432 46.6133C61.4311 46.1254 61.7052 45.4637 61.7052 44.7737V41.8838C61.7052 41.1939 61.4311 40.5321 60.9432 40.0443C60.4553 39.5564 59.7936 39.2823 59.1037 39.2823H53.6193C53.582 39.2823 53.5462 39.2675 53.5198 39.2411C53.4935 39.2147 53.4787 39.1789 53.4787 39.1416V33.6573C53.4787 33.3156 53.4114 32.9773 53.2806 32.6617C53.1499 32.3461 52.9583 32.0593 52.7167 31.8177C52.4751 31.5761 52.1883 31.3845 51.8727 31.2537C51.557 31.123 51.2187 31.0557 50.8771 31.0557H47.9858C47.2959 31.0557 46.6341 31.3298 46.1463 31.8177C45.6584 32.3056 45.3843 32.9673 45.3843 33.6573V39.1416C45.3843 39.1789 45.3695 39.2147 45.3431 39.2411C45.3167 39.2675 45.2809 39.2823 45.2437 39.2823H39.7593C39.0693 39.2823 38.4076 39.5564 37.9197 40.0443C37.4318 40.5321 37.1577 41.1939 37.1577 41.8838V44.7737C37.1577 45.1154 37.2251 45.4539 37.3559 45.7696C37.4867 46.0853 37.6785 46.3722 37.9202 46.6138C38.1619 46.8554 38.4489 47.047 38.7647 47.1776C39.0805 47.3083 39.4189 47.3754 39.7607 47.3752ZM39.6201 41.8845C39.6201 41.8472 39.6349 41.8115 39.6612 41.7851C39.6876 41.7587 39.7234 41.7439 39.7607 41.7439H45.2451C45.935 41.7439 46.5968 41.4698 47.0846 40.9819C47.5725 40.494 47.8466 39.8323 47.8466 39.1424V33.658C47.8466 33.6207 47.8614 33.5849 47.8878 33.5585C47.9142 33.5322 47.95 33.5174 47.9872 33.5174H50.8771C50.9144 33.5174 50.9502 33.5322 50.9765 33.5585C51.0029 33.5849 51.0177 33.6207 51.0177 33.658V39.1424C51.0177 39.8323 51.2918 40.494 51.7797 40.9819C52.2676 41.4698 52.9293 41.7439 53.6193 41.7439H59.1037C59.1409 41.7439 59.1767 41.7587 59.2031 41.7851C59.2295 41.8115 59.2443 41.8472 59.2443 41.8845V44.7744C59.2443 44.8117 59.2295 44.8474 59.2031 44.8738C59.1767 44.9002 59.1409 44.915 59.1037 44.915H53.6193C52.9293 44.915 52.2676 45.1891 51.7797 45.677C51.2918 46.1649 51.0177 46.8266 51.0177 47.5166V53.0009C51.0177 53.0382 51.0029 53.074 50.9765 53.1004C50.9502 53.1268 50.9144 53.1416 50.8771 53.1416H47.9858C47.9485 53.1416 47.9128 53.1268 47.8864 53.1004C47.86 53.074 47.8452 53.0382 47.8452 53.0009V47.5166C47.8452 46.8266 47.5711 46.1649 47.0832 45.677C46.5953 45.1891 45.9336 44.915 45.2437 44.915H39.7593C39.722 44.915 39.6862 44.9002 39.6598 44.8738C39.6335 44.8474 39.6187 44.8117 39.6187 44.7744L39.6201 41.8845Z" fill="#FF5473"/>
<path d="M14.3765 31.5732H19.8608C19.8981 31.5732 19.9339 31.588 19.9603 31.6144C19.9866 31.6408 20.0015 31.6765 20.0015 31.7138V37.1982C20.0015 37.8882 20.2756 38.5499 20.7634 39.0378C21.2513 39.5257 21.913 39.7998 22.603 39.7998H25.4929C25.8345 39.7998 26.1728 39.7325 26.4884 39.6017C26.8041 39.471 27.0909 39.2794 27.3325 39.0378C27.574 38.7962 27.7657 38.5094 27.8964 38.1938C28.0271 37.8782 28.0944 37.5399 28.0944 37.1982V31.7138C28.0944 31.6765 28.1092 31.6408 28.1356 31.6144C28.162 31.588 28.1978 31.5732 28.2351 31.5732H33.7194C34.0611 31.5732 34.3994 31.5059 34.715 31.3752C35.0306 31.2444 35.3174 31.0528 35.559 30.8112C35.8006 30.5697 35.9922 30.2829 36.123 29.9672C36.2537 29.6516 36.321 29.3133 36.321 28.9716V26.0818C36.321 25.3918 36.0469 24.7301 35.559 24.2422C35.0711 23.7543 34.4094 23.4802 33.7194 23.4802H28.2351C28.1978 23.4802 28.162 23.4654 28.1356 23.4391C28.1092 23.4127 28.0944 23.3769 28.0944 23.3396V17.8623C28.0944 17.5206 28.0271 17.1823 27.8964 16.8667C27.7657 16.5511 27.574 16.2643 27.3325 16.0227C27.0909 15.7811 26.8041 15.5895 26.4884 15.4587C26.1728 15.328 25.8345 15.2607 25.4929 15.2607H22.603C21.913 15.2607 21.2513 15.5348 20.7634 16.0227C20.2756 16.5106 20.0015 17.1723 20.0015 17.8623V23.3466C20.0015 23.3651 19.9978 23.3834 19.9908 23.4005C19.9837 23.4175 19.9733 23.433 19.9603 23.4461C19.9472 23.4591 19.9317 23.4695 19.9147 23.4766C19.8976 23.4836 19.8793 23.4873 19.8608 23.4873H14.3765C14.0348 23.4873 13.6965 23.5546 13.3809 23.6853C13.0653 23.816 12.7785 24.0077 12.5369 24.2493C12.2953 24.4908 12.1037 24.7776 11.9729 25.0933C11.8422 25.4089 11.7749 25.7472 11.7749 26.0888V28.9716C11.7749 29.6616 12.049 30.3233 12.5369 30.8112C13.0248 31.2991 13.6865 31.5732 14.3765 31.5732ZM14.2358 26.0832C14.2358 26.0459 14.2507 26.0101 14.277 25.9838C14.3034 25.9574 14.3392 25.9426 14.3765 25.9426H19.8608C20.5508 25.9426 21.2125 25.6685 21.7004 25.1806C22.1883 24.6927 22.4624 24.031 22.4624 23.341V17.8623C22.4624 17.825 22.4772 17.7892 22.5036 17.7628C22.53 17.7365 22.5657 17.7216 22.603 17.7216H25.4929C25.5302 17.7216 25.5659 17.7365 25.5923 17.7628C25.6187 17.7892 25.6335 17.825 25.6335 17.8623V23.3466C25.6335 23.6883 25.7008 24.0266 25.8315 24.3422C25.9623 24.6579 26.1539 24.9447 26.3955 25.1862C26.6371 25.4278 26.9238 25.6194 27.2395 25.7502C27.5551 25.8809 27.8934 25.9482 28.2351 25.9482H33.7194C33.7567 25.9482 33.7925 25.963 33.8189 25.9894C33.8452 26.0158 33.8601 26.0515 33.8601 26.0888V28.9716C33.8601 29.0089 33.8452 29.0447 33.8189 29.0711C33.7925 29.0975 33.7567 29.1123 33.7194 29.1123H28.2351C27.8934 29.1123 27.5551 29.1796 27.2395 29.3103C26.9238 29.441 26.6371 29.6327 26.3955 29.8743C26.1539 30.1158 25.9623 30.4026 25.8315 30.7183C25.7008 31.0339 25.6335 31.3722 25.6335 31.7138V37.1982C25.6335 37.2355 25.6187 37.2713 25.5923 37.2976C25.5659 37.324 25.5302 37.3388 25.4929 37.3388H22.603C22.5657 37.3388 22.53 37.324 22.5036 37.2976C22.4772 37.2713 22.4624 37.2355 22.4624 37.1982V31.7138C22.4624 31.0239 22.1883 30.3621 21.7004 29.8743C21.2125 29.3864 20.5508 29.1123 19.8608 29.1123H14.3765C14.358 29.1123 14.3397 29.1086 14.3226 29.1016C14.3056 29.0945 14.2901 29.0841 14.277 29.0711C14.264 29.058 14.2536 29.0425 14.2465 29.0255C14.2395 29.0084 14.2358 28.9901 14.2358 28.9716V26.0832Z" fill="#FF5473"/>
<path d="M56.855 22.1956H62.3394C62.3767 22.1956 62.4124 22.2105 62.4388 22.2368C62.4652 22.2632 62.48 22.299 62.48 22.3363V27.8206C62.48 28.5106 62.7541 29.1723 63.242 29.6602C63.7298 30.1481 64.3916 30.4222 65.0815 30.4222H67.9714C68.6614 30.4222 69.3231 30.1481 69.811 29.6602C70.2989 29.1723 70.5729 28.5106 70.5729 27.8206V22.3363C70.5729 22.299 70.5878 22.2632 70.6141 22.2368C70.6405 22.2105 70.6763 22.1956 70.7136 22.1956H76.1979C76.5396 22.1956 76.8779 22.1283 77.1935 21.9976C77.5092 21.8669 77.796 21.6752 78.0375 21.4337C78.2791 21.1921 78.4707 20.9053 78.6015 20.5896C78.7322 20.274 78.7995 19.9357 78.7995 19.5941V16.7042C78.7995 16.0143 78.5254 15.3525 78.0375 14.8646C77.5496 14.3768 76.8879 14.1027 76.1979 14.1027H70.7136C70.6763 14.1027 70.6405 14.0879 70.6141 14.0615C70.5878 14.0351 70.5729 13.9993 70.5729 13.962V8.47767C70.5729 7.78769 70.2989 7.12597 69.811 6.63809C69.3231 6.1502 68.6614 5.87611 67.9714 5.87611H65.0815C64.3916 5.87611 63.7298 6.1502 63.242 6.63809C62.7541 7.12597 62.48 7.78769 62.48 8.47767V13.962C62.48 13.9993 62.4652 14.0351 62.4388 14.0615C62.4124 14.0879 62.3767 14.1027 62.3394 14.1027H56.855C56.5133 14.1027 56.175 14.17 55.8594 14.3007C55.5438 14.4314 55.257 14.6231 55.0154 14.8646C54.7738 15.1062 54.5822 15.393 54.4515 15.7087C54.3207 16.0243 54.2534 16.3626 54.2534 16.7042V19.5941C54.2534 19.9357 54.3207 20.274 54.4515 20.5896C54.5822 20.9053 54.7738 21.1921 55.0154 21.4337C55.257 21.6752 55.5438 21.8669 55.8594 21.9976C56.175 22.1283 56.5133 22.1956 56.855 22.1956ZM56.7144 16.7049C56.7144 16.6676 56.7292 16.6319 56.7555 16.6055C56.7819 16.5791 56.8177 16.5643 56.855 16.5643H62.3394C63.0293 16.5643 63.691 16.2902 64.1789 15.8023C64.6668 15.3144 64.9409 14.6527 64.9409 13.9627V8.47837C64.9409 8.44108 64.9557 8.40531 64.9821 8.37893C65.0085 8.35256 65.0442 8.33775 65.0815 8.33775H67.9714C68.0087 8.33775 68.0444 8.35256 68.0708 8.37893C68.0972 8.40531 68.112 8.44108 68.112 8.47837V13.9627C68.112 14.6527 68.3861 15.3144 68.874 15.8023C69.3619 16.2902 70.0236 16.5643 70.7136 16.5643H76.1979C76.2352 16.5643 76.271 16.5791 76.2974 16.6055C76.3238 16.6319 76.3386 16.6676 76.3386 16.7049V19.5948C76.3386 19.6321 76.3238 19.6678 76.2974 19.6942C76.271 19.7206 76.2352 19.7354 76.1979 19.7354H70.7136C70.0236 19.7354 69.3619 20.0095 68.874 20.4974C68.3861 20.9853 68.112 21.647 68.112 22.337V27.8213C68.112 27.8398 68.1084 27.8581 68.1013 27.8752C68.0942 27.8922 68.0839 27.9077 68.0708 27.9208C68.0578 27.9338 68.0423 27.9442 68.0252 27.9513C68.0081 27.9583 67.9899 27.962 67.9714 27.962H65.0815C65.0631 27.962 65.0448 27.9583 65.0277 27.9513C65.0107 27.9442 64.9952 27.9338 64.9821 27.9208C64.9691 27.9077 64.9587 27.8922 64.9516 27.8752C64.9446 27.8581 64.9409 27.8398 64.9409 27.8213V22.337C64.9409 21.647 64.6668 20.9853 64.1789 20.4974C63.691 20.0095 63.0293 19.7354 62.3394 19.7354H56.855C56.8177 19.7354 56.7819 19.7206 56.7555 19.6942C56.7292 19.6678 56.7144 19.6321 56.7144 19.5948V16.7049Z" fill="#FF5473"/>
</svg>
