<svg width="104" height="104" viewBox="0 0 104 104" fill="none" xmlns="http://www.w3.org/2000/svg">
<g clip-path="url(#clip0_856_4230)">
<path d="M60.5363 50.8024L60.532 50.8973L59.2964 78.5188L59.296 78.5281L59.2957 78.5281C59.1349 80.0271 59.6211 81.5237 60.6323 82.6421C62.8133 85.0274 66.5153 85.1932 68.9008 83.0123L69.002 83.123L68.9008 83.0123C69.0297 82.8945 69.1532 82.771 69.271 82.6421C70.2596 81.5558 70.7448 80.1035 70.6074 78.6412L70.6067 78.6339L70.6069 78.6339L69.3644 50.8939L69.3602 50.7991L69.4441 50.7546C71.7882 49.5132 73.4414 47.274 73.938 44.6684C74.4881 41.5404 74.2946 38.3267 73.3731 35.2872L72.2706 31.6584C70.8949 27.6135 66.5011 25.449 62.4555 26.8235C60.18 27.5966 58.3928 29.3833 57.619 31.6584L56.5165 35.2872L60.5363 50.8024ZM60.5363 50.8024L60.4523 50.758M60.5363 50.8024L60.4523 50.758M60.4523 50.758C58.105 49.5172 56.449 47.2765 55.9516 44.6684M60.4523 50.758L55.9516 44.6684M55.9516 44.6684C55.4015 41.5404 55.595 38.3268 56.5164 35.2873L55.9516 44.6684ZM70.8473 44.1261L70.8473 44.1261L70.8478 44.1233C71.3107 41.4838 71.1473 38.7723 70.371 36.2073L70.371 36.2071L69.2677 32.5742L69.268 32.5741L69.2649 32.5658C68.7984 31.3046 67.8041 30.31 66.5426 29.8435L66.4906 29.9842L66.5426 29.8435C64.1566 28.9611 61.5071 30.1799 60.6247 32.5658L60.6245 32.5657L60.6219 32.5742L59.5186 36.2071L59.5186 36.2072C58.7414 38.772 58.578 41.4838 59.0418 44.1233L59.0418 44.1234L59.0423 44.1261C59.4245 46.0842 60.8196 47.6909 62.7045 48.344C63.3392 48.5835 63.748 49.204 63.7175 49.882L63.7175 49.882L62.422 78.7714C62.3313 79.4169 62.5298 80.07 62.9651 80.5558L62.9649 80.556L62.9713 80.5623C64.0645 81.6446 65.8251 81.6446 66.9183 80.5623L66.9185 80.5624L66.9231 80.5574C67.3393 80.1062 67.5412 79.4979 67.478 78.8875L66.1721 49.882C66.1416 49.204 66.5504 48.5835 67.1851 48.344C69.07 47.6909 70.4651 46.0842 70.8473 44.1261Z" fill="white" stroke="#263238" stroke-width="0.3"/>
<path d="M45.3318 42.8053L45.2879 42.8493L40.6359 47.5012L40.6357 47.5014C40.3217 47.8143 40.1546 48.2458 40.1762 48.6886C40.1762 48.6887 40.1762 48.6887 40.1762 48.6888L41.6798 78.7615C41.6798 78.7617 41.6798 78.7618 41.6798 78.762C41.7179 79.4519 41.4673 80.1267 40.9886 80.6249L40.987 80.6266C39.9882 81.6342 38.3616 81.6417 37.3535 80.6432C37.3533 80.643 37.3531 80.6428 37.3529 80.6426L37.4585 80.536C37.456 80.5337 37.4537 80.5313 37.4513 80.5289C37.4487 80.5263 37.446 80.5236 37.4434 80.521L45.3318 42.8053ZM45.3318 42.8053V42.7432V27.9882C45.3318 27.122 46.0341 26.4197 46.9003 26.4197C47.7665 26.4197 48.4688 27.1219 48.4688 27.9884V43.4549C48.4688 43.8709 48.3034 44.2696 48.0093 44.5638L48.0092 44.5638L43.3933 49.1814L43.3463 49.2285L43.3496 49.2949L44.8155 78.6107L44.9653 78.6033M45.3318 42.8053L43.4994 49.2875L44.9653 78.6033M44.9653 78.6033L44.8155 78.6108M44.9653 78.6033C44.9745 78.7915 44.9745 78.9799 44.9653 79.1681L44.8155 78.6108M44.8155 78.6108C44.8245 78.7941 44.8245 78.9775 44.8155 79.1607L44.8155 79.1608C44.6636 82.2803 42.0114 84.6859 38.8919 84.534C35.7724 84.3821 33.3668 81.7299 33.5187 78.6104L44.8155 78.6108Z" fill="white" stroke="#263238" stroke-width="0.3"/>
<path d="M35.0211 27.9882C35.0211 27.122 35.7234 26.4197 36.5896 26.4197C37.4558 26.4197 38.1581 27.122 38.1581 27.9882V41.7362C38.1581 42.6024 37.4558 43.3047 36.5896 43.3047C35.7234 43.3047 35.0211 42.6024 35.0211 41.7362V27.9882Z" fill="white" stroke="#263238" stroke-width="0.3"/>
<path d="M40.1764 27.9882C40.1764 27.122 40.8787 26.4197 41.7449 26.4197C42.6111 26.4197 43.3134 27.122 43.3134 27.9882V41.7362C43.3134 42.6024 42.6111 43.3047 41.7449 43.3047C40.8787 43.3047 40.1764 42.6024 40.1764 41.7362V27.9882Z" fill="white" stroke="#263238" stroke-width="0.3"/>
<path d="M52.056 100.315H52.0562C78.7011 100.285 100.294 78.6923 100.324 52.0474V52.0472C100.324 25.3895 78.7137 3.77919 52.056 3.77919C25.3983 3.77919 3.78798 25.3895 3.78798 52.0472C3.78798 78.7049 25.3983 100.315 52.056 100.315ZM0.650977 52.0472C0.650977 23.6571 23.6658 0.642238 52.0559 0.642188C80.4328 0.674358 103.429 23.6704 103.461 52.0474C103.461 80.4374 80.4461 103.452 52.056 103.452C23.6659 103.452 0.650977 80.4373 0.650977 52.0472Z" fill="white" stroke="#263238" stroke-width="0.3"/>
<path d="M55.7715 82.9119L55.7716 82.9119C56.6339 82.8278 57.4011 83.4586 57.4852 84.3206C57.5693 85.183 56.9386 85.9501 56.0765 86.034L56.0765 86.034L56.0737 86.0343C53.402 86.3464 50.7032 86.3464 48.0316 86.0343C47.1708 85.9334 46.555 85.154 46.656 84.2933C46.7569 83.4325 47.5363 82.8167 48.3971 82.9176L48.3972 82.9177C50.8268 83.1998 53.2811 83.2 55.7107 82.9181L55.7109 82.919C55.7311 82.9163 55.7513 82.9139 55.7715 82.9119Z" fill="white" stroke="#263238" stroke-width="0.3"/>
<path d="M76.0234 29.8063L76.0245 29.8053C76.6882 29.2485 77.6775 29.3354 78.2341 29.999L78.2343 29.9993C89.6961 43.6079 88.8171 63.7297 76.2119 76.287L76.3178 76.3932M76.0234 29.8063C76.0236 29.8061 76.0236 29.8061 76.0233 29.8063L76.0231 29.8065M76.0234 29.8063C76.0234 29.8063 76.0232 29.8064 76.0231 29.8065L76.0231 29.8065M76.0234 29.8063L76.0231 29.8065L76.0231 29.8065M76.0231 29.8065L76.0226 29.8069L76.0213 29.808C76.0201 29.809 76.018 29.8108 76.0154 29.8129M76.0154 29.8129C76.0161 29.8123 76.0168 29.8117 76.0175 29.8111L75.9208 29.6964M76.0154 29.8129C76.014 29.814 76.0125 29.8152 76.0108 29.8164L75.9208 29.6964M76.0154 29.8129C75.3552 30.3716 75.2717 31.3595 75.8293 32.0211L75.8293 32.0211C86.2411 44.381 85.4446 62.6571 73.9972 74.0644C73.3835 74.6759 73.3817 75.6694 73.9932 76.283C74.6048 76.8967 75.5982 76.8985 76.2119 76.287L76.3178 76.3932M75.9208 29.6964C75.9225 29.6952 75.9241 29.6938 75.9256 29.6925C75.9265 29.6918 75.9273 29.6911 75.9281 29.6904C76.6553 29.0803 77.7392 29.1755 78.3491 29.9026C89.8611 43.5709 88.9782 63.7809 76.3178 76.3932M75.9208 29.6964L76.3178 76.3932" fill="white" stroke="#263238" stroke-width="0.3"/>
<mask id="path-8-inside-1_856_4230" fill="white">
<path d="M40.5375 23.2072C40.5367 23.2072 40.536 23.2072 40.5353 23.2072C40.5342 23.2072 40.533 23.2072 40.5317 23.2072H40.5375Z"/>
</mask>
<path d="M40.5375 23.2072C40.5367 23.2072 40.536 23.2072 40.5353 23.2072C40.5342 23.2072 40.533 23.2072 40.5317 23.2072H40.5375Z" fill="white"/>
<path d="M40.5375 22.9072C40.543 22.9072 40.5475 22.9074 40.5501 22.9075C40.5525 22.9076 40.5545 22.9077 40.5539 22.9077C40.5539 22.9077 40.5537 22.9077 40.5535 22.9077C40.5533 22.9077 40.553 22.9077 40.5526 22.9076C40.5518 22.9076 40.5505 22.9075 40.549 22.9075C40.5461 22.9073 40.5412 22.9072 40.5353 22.9072V23.5072C40.5298 23.5072 40.5253 23.507 40.5227 23.5069C40.5203 23.5068 40.5183 23.5066 40.5188 23.5067C40.5189 23.5067 40.519 23.5067 40.5192 23.5067C40.5195 23.5067 40.5198 23.5067 40.5202 23.5068C40.521 23.5068 40.5222 23.5069 40.5238 23.5069C40.5267 23.5071 40.5315 23.5072 40.5375 23.5072V22.9072ZM40.5353 22.9072C40.5314 22.9072 40.5283 22.9072 40.5263 22.9073C40.5253 22.9073 40.5244 22.9073 40.5239 22.9074C40.5234 22.9074 40.5229 22.9074 40.5229 22.9074C40.522 22.9074 40.5264 22.9072 40.5317 22.9072V23.5072C40.5384 23.5072 40.544 23.507 40.5442 23.507C40.5449 23.507 40.5438 23.507 40.5426 23.5071C40.5412 23.5071 40.5386 23.5072 40.5353 23.5072V22.9072ZM40.5317 23.5072H40.5375V22.9072H40.5317V23.5072Z" fill="#263238" mask="url(#path-8-inside-1_856_4230)"/>
<path d="M40.5373 23.2071C40.7429 23.2061 40.9465 23.1685 41.1385 23.0956C46.9638 20.9172 53.3068 20.5282 59.3546 21.9786C60.2773 22.2016 61.2059 21.6347 61.4289 20.7121C61.6518 19.7895 61.085 18.8608 60.1623 18.6379M40.5373 23.2071L40.5374 23.0571C40.5373 23.0571 40.5371 23.0571 40.5369 23.0571M40.5373 23.2071L40.5365 23.0571C40.5366 23.0571 40.5368 23.0571 40.5369 23.0571M40.5373 23.2071C39.8222 23.2065 39.182 22.7633 38.9303 22.0938L39.9339 19.8803M40.5369 23.0571C40.7246 23.0561 40.9103 23.0218 41.0854 22.9554L41.086 22.9551C46.9393 20.7663 53.3127 20.3754 59.3896 21.8328L59.3899 21.8328C60.232 22.0363 61.0796 21.5189 61.2831 20.6769C61.4866 19.8348 60.9693 18.9874 60.1274 18.7837M40.5369 23.0571C39.8844 23.0564 39.3004 22.6519 39.0707 22.041L39.0707 22.041C38.7658 21.2303 39.1757 20.3257 39.9866 20.0208M60.1274 18.7837L60.1623 18.6379M60.1274 18.7837C60.1273 18.7837 60.1272 18.7837 60.1271 18.7837L60.1623 18.6379M60.1274 18.7837C53.4404 17.1811 46.4272 17.6119 39.9866 20.0208M60.1623 18.6379C53.4462 17.0283 46.4025 17.4609 39.9339 19.8803M39.9339 19.8803L39.9867 20.0207C39.9866 20.0207 39.9866 20.0208 39.9866 20.0208M39.9339 19.8803L39.9864 20.0208C39.9865 20.0208 39.9865 20.0208 39.9866 20.0208" fill="white" stroke="#263238" stroke-width="0.3"/>
<path d="M26.9165 33.7616L26.9153 33.7632C23.0378 39.0695 20.956 45.4752 20.973 52.0472C20.9533 60.2731 24.2159 68.1667 30.0373 73.9782C30.6507 74.592 30.6503 75.5869 30.0365 76.2003C29.4228 76.8137 28.4278 76.8133 27.8144 76.1995C15.9438 64.2873 14.4883 45.5154 24.3806 31.9156L24.382 31.9136C24.3906 31.9014 24.3996 31.8891 24.409 31.8764C24.9296 31.1841 25.9127 31.0448 26.6051 31.5653C27.2976 32.0859 27.437 33.0691 26.9165 33.7616Z" fill="white" stroke="#263238" stroke-width="0.3"/>
</g>
<defs>
<clipPath id="clip0_856_4230">
<rect width="103.11" height="103.11" fill="white" transform="translate(0.500977 0.492188)"/>
</clipPath>
</defs>
</svg>
