<svg width="45" height="39" viewBox="0 0 45 39" fill="none" xmlns="http://www.w3.org/2000/svg">
<path d="M35.6985 31.8275C35.6985 32.4575 35.5585 33.105 35.261 33.735C34.9635 34.365 34.5785 34.96 34.071 35.52C33.2135 36.465 32.2684 37.1475 31.2009 37.585C30.1509 38.0225 29.0133 38.25 27.7883 38.25C26.0032 38.25 24.0957 37.83 22.0831 36.9725C20.0706 36.115 18.058 34.96 16.063 33.5075C14.0504 32.0375 12.1428 30.41 10.3228 28.6075C8.52023 26.7875 6.89268 24.88 5.44014 22.885C4.0051 20.89 2.85006 18.895 2.01004 16.9175C1.17001 14.9225 0.75 13.015 0.75 11.195C0.75 10.005 0.960006 8.8675 1.38002 7.8175C1.80003 6.75 2.46505 5.77 3.39258 4.895C4.51261 3.7925 5.73765 3.25 7.03269 3.25C7.5227 3.25 8.01271 3.355 8.45023 3.565C8.90524 3.775 9.30775 4.09 9.62276 4.545L13.6829 10.2675C13.9979 10.705 14.2254 11.1075 14.3829 11.4925C14.5404 11.86 14.6279 12.2275 14.6279 12.56C14.6279 12.98 14.5054 13.4 14.2604 13.8025C14.0329 14.205 13.7004 14.625 13.2804 15.045L11.9503 16.4275C11.7578 16.62 11.6703 16.8475 11.6703 17.1275C11.6703 17.2675 11.6878 17.39 11.7228 17.53C11.7753 17.67 11.8278 17.775 11.8628 17.88C12.1778 18.4575 12.7204 19.21 13.4904 20.12C14.2779 21.03 15.1179 21.9575 16.0279 22.885C16.973 23.8125 17.883 24.67 18.8105 25.4575C19.7206 26.2275 20.4731 26.7525 21.0681 27.0675C21.1556 27.1025 21.2606 27.155 21.3831 27.2075C21.5231 27.26 21.6631 27.2775 21.8206 27.2775C22.1181 27.2775 22.3456 27.1725 22.5381 26.98L23.8682 25.6675C24.3057 25.23 24.7257 24.8975 25.1282 24.6875C25.5307 24.4425 25.9332 24.32 26.3708 24.32C26.7033 24.32 27.0533 24.39 27.4383 24.5475C27.8233 24.705 28.2258 24.9325 28.6633 25.23L34.456 29.3425C34.911 29.6575 35.226 30.025 35.4185 30.4625C35.5935 30.9 35.6985 31.3375 35.6985 31.8275Z" fill="white"/>
<circle cx="39.75" cy="5.75" r="3.75" fill="#2BB041" stroke="#7AEC8C" stroke-width="2.5"/>
<path d="M25.6227 18.501C25.6227 17.451 24.8002 15.841 23.5752 14.5285C22.4551 13.321 20.9676 12.376 19.4976 12.376" stroke="white" stroke-width="2.4" stroke-linecap="round" stroke-linejoin="round"/>
<path d="M31.7489 18.5C31.7489 11.7275 26.2712 6.25 19.4985 6.25" stroke="white" stroke-width="2.4" stroke-linecap="round" stroke-linejoin="round"/>
</svg>
