<svg width="8" height="10" viewBox="0 0 8 10" fill="none" xmlns="http://www.w3.org/2000/svg">
<path d="M7.03202 4.14004H6.61865H6.61855V2.72505C6.61853 1.22786 5.36518 0.00976562 3.82458 0.00976562C2.28407 0.00976562 1.03068 1.22786 1.03068 2.72507V4.14006H0.61723C0.290393 4.14006 0.0253906 4.39756 0.0253906 4.71522V5.06511V9.05688V9.40676C0.0253906 9.72443 0.290372 9.98193 0.61723 9.98193H3.8246H7.03202C7.35886 9.98193 7.62382 9.72443 7.62382 9.40676V9.05688V5.06511V4.71522C7.62382 4.39754 7.35886 4.14004 7.03202 4.14004ZM4.45454 8.26002H3.19469L3.42017 7.21583C3.2093 7.08542 3.06845 6.8577 3.06845 6.59679C3.06845 6.19096 3.40702 5.86196 3.8246 5.86196C4.24221 5.86196 4.58072 6.19096 4.58072 6.59679C4.58072 6.8577 4.43991 7.08542 4.22906 7.21579L4.45454 8.26002ZM5.62163 4.14004H3.8246H2.02769H2.02758V2.72505C2.02758 1.76198 2.83367 0.978599 3.8246 0.978599C4.81558 0.978599 5.62163 1.762 5.62163 2.72505V4.14004Z" fill="#263238"/>
</svg>
