<svg width="70" height="70" viewBox="0 0 70 70" fill="none" xmlns="http://www.w3.org/2000/svg">
<path d="M33.9314 36.7245H29.9103V32.7035C29.9103 32.1103 29.4294 31.6294 28.8362 31.6294H23.6327C23.0395 31.6294 22.5586 32.1103 22.5586 32.7035V36.7245H18.5376C17.9444 36.7245 17.4635 37.2054 17.4635 37.7986V43.0023C17.4635 43.5954 17.9444 44.0763 18.5376 44.0763H22.5586V48.0974C22.5586 48.6905 23.0395 49.1714 23.6327 49.1714H28.8362C29.4294 49.1714 29.9103 48.6905 29.9103 48.0974V44.0763H33.9314C34.5246 44.0763 35.0055 43.5954 35.0055 43.0023V37.7986C35.0055 37.2054 34.5247 36.7245 33.9314 36.7245ZM32.8574 41.9282H28.8362C28.2431 41.9282 27.7622 42.4091 27.7622 43.0023V47.0233H24.7067V43.0023C24.7067 42.4091 24.2258 41.9282 23.6327 41.9282H19.6116V38.8727H23.6327C24.2258 38.8727 24.7067 38.3917 24.7067 37.7986V33.7776H27.7622V37.7986C27.7622 38.3917 28.2431 38.8727 28.8362 38.8727H32.8574V41.9282ZM60.9182 53.1465C61.1663 52.6474 61.3672 52.1197 61.5148 51.5682C62.0922 49.4134 61.7997 47.1692 60.691 45.2492C59.5838 43.3315 57.7864 41.9571 55.6297 41.3791C53.4729 40.8013 51.2292 41.0929 49.3113 42.2001L46.4464 43.8541V25.5504C46.4464 22.2675 45.5415 19.6771 43.5988 17.3984C41.9023 15.4087 39.5977 13.8902 37.1575 12.2826C36.6785 11.967 36.1931 11.6473 35.7043 11.3189C36.4997 10.9633 37.0562 10.166 37.0562 9.23994V4.118C37.0562 2.86216 36.0345 1.84045 34.7786 1.84045H17.6904C16.4346 1.84045 15.4129 2.86216 15.4129 4.118V9.2398C15.4129 10.1658 15.9692 10.963 16.7646 11.3187C16.2756 11.6472 15.7904 11.9668 15.3114 12.2825C12.8714 13.8901 10.5666 15.4085 8.87007 17.3982C6.92736 19.6769 6.02246 22.2672 6.02246 25.5502V56.9389C6.02246 61.746 9.93326 65.6569 14.7404 65.6569H28.7441C29.812 66.8521 31.209 67.7155 32.8029 68.1427C33.5273 68.3369 34.2612 68.4329 34.9897 68.4329C35.0004 68.4329 56.3474 68.4323 56.3474 68.4323C60.9409 68.4323 64.678 64.6953 64.678 60.1018C64.678 57.2971 63.2335 54.6776 60.9182 53.1465ZM48.2378 59.5782L46.2397 56.1171L50.3006 58.3872L48.2378 59.5782ZM52.4664 57.1368L44.1417 52.4834L42.4196 49.5006L54.2441 56.1104L52.4664 57.1368ZM56.568 54.7688L56.41 54.8601L43.8452 47.8365L45.623 46.8101L57.9374 53.6938C57.5385 54.1104 57.0799 54.4731 56.568 54.7688ZM59.6078 50.1461C59.5723 50.4357 59.5168 50.7252 59.4399 51.0124C59.3579 51.3183 59.2539 51.6145 59.13 51.8993L47.7887 45.5596L49.5666 44.5332L59.6078 50.1461ZM55.0738 43.4541C56.6762 43.8834 58.0104 44.9024 58.8308 46.3233C59.0578 46.7165 59.2369 47.1287 59.3706 47.5524L51.9764 43.4192C52.9802 43.1701 54.0399 43.1771 55.0738 43.4541ZM30.7909 52.8929C30.4593 53.0844 30.1475 53.2969 29.853 53.5251H8.17072V27.3412H44.2984V45.0944L30.7909 52.8929ZM17.561 4.118C17.561 4.04899 17.6214 3.98858 17.6904 3.98858H34.7786C34.8476 3.98858 34.908 4.04899 34.908 4.118V9.2398C34.908 9.30881 34.8476 9.36923 34.7786 9.36923H17.6904C17.6214 9.36923 17.561 9.30881 17.561 9.2398V4.118ZM16.4932 14.0764C17.704 13.2787 18.9532 12.4542 20.2233 11.5174H32.2457C33.5156 12.4542 34.765 13.2787 35.9758 14.0764C40.7096 17.1951 44.1541 19.4685 44.2918 25.1931H8.1773C8.31505 19.4684 11.7594 17.1951 16.4932 14.0764ZM8.17072 56.939V55.6733H27.9072C26.4644 57.9754 26.1897 60.917 27.3515 63.5088H14.7405C11.1178 63.5088 8.17072 60.5616 8.17072 56.939ZM33.3591 66.0679C31.7566 65.6385 30.4223 64.6195 29.602 63.1986C27.8975 60.2464 28.9126 56.4579 31.8649 54.7532L40.195 49.9438L46.3774 60.6522L38.0472 65.4616C36.6267 66.2818 34.9617 66.4974 33.3591 66.0679ZM44.5805 64.1699V66.2842H40.9186L44.5805 64.1699ZM56.3475 66.2842H46.7286V62.9298L57.6419 56.6289C58.4334 56.172 59.1303 55.5966 59.7189 54.9288C61.4492 56.0646 62.5297 58.0145 62.5297 60.1018C62.5298 63.5108 59.7565 66.2842 56.3475 66.2842Z" fill="white"/>
</svg>
