<svg width="24" height="18" viewBox="0 0 24 18" fill="none" xmlns="http://www.w3.org/2000/svg">
<path d="M23.5476 14.697C23.5476 15.021 23.455 15.354 23.2581 15.678C23.0612 16.002 22.8064 16.308 22.4705 16.596C21.903 17.082 21.2776 17.433 20.5711 17.658C19.8762 17.883 19.1233 18 18.3126 18C17.1312 18 15.8688 17.784 14.5369 17.343C13.2049 16.902 11.873 16.308 10.5527 15.561C9.22075 14.805 7.95832 13.968 6.75379 13.041C5.56085 12.105 4.48373 11.124 3.52242 10.098C2.5727 9.072 1.80829 8.046 1.25236 7.029C0.696424 6.003 0.418457 5.022 0.418457 4.086C0.418457 3.474 0.557441 2.889 0.835408 2.349C1.11338 1.8 1.55349 1.296 2.16733 0.846C2.90858 0.279 3.71932 0 4.57638 0C4.90068 0 5.22497 0.0540001 5.51452 0.162C5.81565 0.27 6.08204 0.432 6.29051 0.666L8.97753 3.609C9.18601 3.834 9.33657 4.041 9.44081 4.239C9.54505 4.428 9.60296 4.617 9.60296 4.788C9.60296 5.004 9.52188 5.22 9.35974 5.427C9.20917 5.634 8.98911 5.85 8.71115 6.066L7.83092 6.777C7.70351 6.876 7.6456 6.993 7.6456 7.137C7.6456 7.209 7.65719 7.272 7.68035 7.344C7.7151 7.416 7.74984 7.47 7.77301 7.524C7.98148 7.821 8.34052 8.208 8.85013 8.676C9.37132 9.144 9.92725 9.621 10.5295 10.098C11.1549 10.575 11.7572 11.016 12.371 11.421C12.9733 11.817 13.4713 12.087 13.8651 12.249C13.923 12.267 13.9925 12.294 14.0736 12.321C14.1663 12.348 14.2589 12.357 14.3631 12.357C14.56 12.357 14.7106 12.303 14.838 12.204L15.7182 11.529C16.0078 11.304 16.2858 11.133 16.5521 11.025C16.8185 10.899 17.0849 10.836 17.3745 10.836C17.5945 10.836 17.8262 10.872 18.081 10.953C18.3358 11.034 18.6021 11.151 18.8917 11.304L22.7253 13.419C23.0265 13.581 23.2349 13.77 23.3623 13.995C23.4782 14.22 23.5476 14.445 23.5476 14.697Z" fill="#12213B"/>
<path d="M19.5273 6.30002C19.5273 5.76002 18.983 4.93202 18.1722 4.25702C17.431 3.63602 16.4465 3.15002 15.4736 3.15002" fill="#12213B"/>
<path d="M23.582 6.3C23.582 2.817 19.9568 0 15.4746 0L23.582 6.3Z" fill="#12213B"/>
</svg>
