<svg xmlns="http://www.w3.org/2000/svg" width="25" height="26" viewBox="0 0 25 26" fill="none" class="trin-trin">
    <g clip-path="url(#clip0_454_1830)">
        <path d="M19.7583 15.9866C19.2464 15.4537 18.6291 15.1688 17.9748 15.1688C17.3258 15.1688 16.7032 15.4484 16.1703 15.9813L14.5029 17.6434C14.3658 17.5695 14.2286 17.5009 14.0967 17.4323C13.9067 17.3374 13.7273 17.2477 13.5743 17.1527C12.0125 16.1607 10.5931 14.868 9.23179 13.1954C8.57224 12.3617 8.12902 11.6599 7.80716 10.9476C8.23983 10.5519 8.64083 10.1403 9.03129 9.7446C9.17903 9.59686 9.32677 9.44384 9.47451 9.2961C10.5826 8.18805 10.5826 6.75287 9.47451 5.64482L8.03405 4.20435C7.87048 4.04079 7.70163 3.87194 7.54334 3.70309C7.22675 3.37596 6.89434 3.03826 6.55137 2.72168C6.03956 2.21514 5.42749 1.94604 4.78377 1.94604C4.14005 1.94604 3.51743 2.21514 2.98979 2.72168C2.98451 2.72696 2.98451 2.72696 2.97923 2.73223L1.18525 4.54205C0.509868 5.21743 0.124689 6.04055 0.0402664 6.99558C-0.0863677 8.5363 0.367405 9.97148 0.715648 10.9107C1.57043 13.2165 2.84732 15.3534 4.75211 17.6434C7.06318 20.403 9.84386 22.5821 13.0203 24.1176C14.2338 24.6927 15.8537 25.3734 17.6635 25.4894C17.7743 25.4947 17.8904 25.5 17.9959 25.5C19.2148 25.5 20.2384 25.0621 21.0404 24.1914C21.0457 24.1809 21.0563 24.1756 21.0615 24.1651C21.3359 23.8326 21.6525 23.5319 21.9849 23.21C22.2118 22.9937 22.444 22.7668 22.6708 22.5294C23.1932 21.9859 23.4676 21.3527 23.4676 20.7037C23.4676 20.0495 23.1879 19.4216 22.655 18.8939L19.7583 15.9866ZM21.6472 21.5427C21.6419 21.5427 21.6419 21.548 21.6472 21.5427C21.4414 21.7643 21.2304 21.9648 21.0035 22.1864C20.6605 22.5135 20.3123 22.8565 19.9851 23.2417C19.4522 23.8115 18.8243 24.0806 18.0012 24.0806C17.9221 24.0806 17.8376 24.0806 17.7585 24.0754C16.1914 23.9751 14.7351 23.363 13.6429 22.8407C10.6564 21.3949 8.03405 19.3424 5.85488 16.7411C4.05562 14.5725 2.8526 12.5675 2.05586 10.4147C1.56515 9.10087 1.38575 8.07725 1.4649 7.11166C1.51766 6.49432 1.7551 5.98251 2.19305 5.54457L3.99231 3.74531C4.25085 3.50259 4.52523 3.37068 4.79432 3.37068C5.12674 3.37068 5.39583 3.57118 5.56468 3.74003C5.56996 3.74531 5.57523 3.75058 5.58051 3.75586C5.90237 4.05661 6.2084 4.36792 6.53027 4.70034C6.69383 4.86918 6.86268 5.03803 7.03153 5.21215L8.47199 6.65261C9.03129 7.21192 9.03129 7.72901 8.47199 8.28831C8.31897 8.44132 8.17123 8.59434 8.01822 8.74208C7.575 9.19585 7.15288 9.61796 6.69383 10.0295C6.68328 10.0401 6.67273 10.0454 6.66745 10.0559C6.21368 10.5097 6.2981 10.9529 6.39308 11.2537C6.39835 11.2695 6.40363 11.2853 6.40891 11.3011C6.78353 12.2087 7.31118 13.0635 8.11319 14.0818L8.11847 14.0871C9.57476 15.8811 11.1102 17.2793 12.8039 18.3504C13.0203 18.4876 13.2419 18.5984 13.4529 18.704C13.6429 18.7989 13.8223 18.8886 13.9753 18.9836C13.9964 18.9942 14.0175 19.01 14.0386 19.0206C14.218 19.1103 14.3869 19.1525 14.561 19.1525C14.9989 19.1525 15.2733 18.8781 15.363 18.7884L17.1675 16.9839C17.3469 16.8045 17.6319 16.5881 17.9643 16.5881C18.2914 16.5881 18.5605 16.7939 18.7241 16.9733C18.7294 16.9786 18.7294 16.9786 18.7346 16.9839L21.6419 19.8912C22.1854 20.4294 22.1854 20.9834 21.6472 21.5427Z" fill="white" />
        <path d="M13.5111 6.44688C14.8936 6.67904 16.1493 7.33332 17.1519 8.33584C18.1544 9.33836 18.8034 10.5941 19.0408 11.9766C19.0989 12.3248 19.3996 12.5675 19.7426 12.5675C19.7848 12.5675 19.8217 12.5622 19.8639 12.557C20.2544 12.4937 20.5129 12.1243 20.4496 11.7339C20.1647 10.0612 19.3732 8.53634 18.1649 7.32804C16.9566 6.11974 15.4317 5.32828 13.7591 5.04335C13.3687 4.98003 13.0046 5.23858 12.936 5.62376C12.8674 6.00894 13.1207 6.38356 13.5111 6.44688Z" fill="white" />
        <path d="M24.9715 11.528C24.5019 8.77373 23.2039 6.26743 21.2094 4.27295C19.2149 2.27846 16.7086 0.980461 13.9543 0.51086C13.5692 0.442266 13.2051 0.706087 13.1365 1.09127C13.0732 1.48172 13.3317 1.84579 13.7222 1.91439C16.181 2.33122 18.4235 3.49731 20.2069 5.27547C21.9903 7.0589 23.1511 9.30137 23.568 11.7602C23.626 12.1084 23.9268 12.3511 24.2697 12.3511C24.312 12.3511 24.3489 12.3459 24.3911 12.3406C24.7763 12.2825 25.0401 11.9132 24.9715 11.528Z" fill="white" />
    </g>
    <defs>
        <clipPath id="clip0_454_1830">
            <rect width="25" height="25" fill="white" transform="translate(0 0.5)" />
        </clipPath>
    </defs>
</svg>