<svg width="24" height="19" viewBox="0 0 24 19" fill="none" xmlns="http://www.w3.org/2000/svg">
<path d="M23.7976 15.197C23.7976 15.521 23.705 15.854 23.5081 16.178C23.3112 16.502 23.0564 16.808 22.7205 17.096C22.153 17.582 21.5276 17.933 20.8211 18.158C20.1262 18.383 19.3733 18.5 18.5626 18.5C17.3812 18.5 16.1188 18.284 14.7869 17.843C13.4549 17.402 12.123 16.808 10.8027 16.061C9.47075 15.305 8.20832 14.468 7.00379 13.541C5.81085 12.605 4.73373 11.624 3.77242 10.598C2.8227 9.572 2.05829 8.546 1.50236 7.529C0.946424 6.503 0.668457 5.522 0.668457 4.586C0.668457 3.974 0.807441 3.389 1.08541 2.849C1.36338 2.3 1.80349 1.796 2.41733 1.346C3.15858 0.779 3.96932 0.5 4.82638 0.5C5.15068 0.5 5.47497 0.554 5.76452 0.662C6.06565 0.77 6.33204 0.932 6.54051 1.166L9.22753 4.109C9.43601 4.334 9.58657 4.541 9.69081 4.739C9.79505 4.928 9.85296 5.117 9.85296 5.288C9.85296 5.504 9.77188 5.72 9.60974 5.927C9.45917 6.134 9.23911 6.35 8.96115 6.566L8.08092 7.277C7.95351 7.376 7.8956 7.493 7.8956 7.637C7.8956 7.709 7.90719 7.772 7.93035 7.844C7.9651 7.916 7.99984 7.97 8.02301 8.024C8.23148 8.321 8.59052 8.708 9.10013 9.176C9.62132 9.644 10.1773 10.121 10.7795 10.598C11.4049 11.075 12.0072 11.516 12.621 11.921C13.2233 12.317 13.7213 12.587 14.1151 12.749C14.173 12.767 14.2425 12.794 14.3236 12.821C14.4163 12.848 14.5089 12.857 14.6131 12.857C14.81 12.857 14.9606 12.803 15.088 12.704L15.9682 12.029C16.2578 11.804 16.5358 11.633 16.8021 11.525C17.0685 11.399 17.3349 11.336 17.6245 11.336C17.8445 11.336 18.0762 11.372 18.331 11.453C18.5858 11.534 18.8521 11.651 19.1417 11.804L22.9753 13.919C23.2765 14.081 23.4849 14.27 23.6123 14.495C23.7282 14.72 23.7976 14.945 23.7976 15.197Z" fill="white"/>
<path d="M19.7773 6.80015C19.7773 6.26015 19.233 5.43215 18.4222 4.75715C17.681 4.13615 16.6965 3.65015 15.7236 3.65015" fill="white"/>
<path d="M23.832 6.8C23.832 3.317 20.2068 0.5 15.7246 0.5L23.832 6.8Z" fill="white"/>
</svg>
