<svg width="91" height="91" viewBox="0 0 91 91" fill="none" xmlns="http://www.w3.org/2000/svg">
<g clip-path="url(#clip0_356_442)">
<path d="M54.9541 39.7295C46.4246 39.7295 39.4854 46.6687 39.4854 55.1982C39.4854 63.7277 46.4246 70.667 54.9541 70.667C63.4836 70.667 70.4229 63.7277 70.4229 55.1982C70.4229 46.6687 63.4836 39.7295 54.9541 39.7295ZM54.9541 67.1513C48.363 67.1513 43.001 61.7893 43.001 55.1982C43.001 48.6071 48.363 43.2451 54.9541 43.2451C61.5452 43.2451 66.9072 48.6071 66.9072 55.1982C66.9072 61.7893 61.5452 67.1513 54.9541 67.1513Z" fill="white"/>
<path d="M88.7153 80.5306L74.7647 66.5794C76.6983 63.2265 77.8059 59.3394 77.8059 55.1982C77.8059 49.0864 75.3937 43.528 71.4722 39.4232V19.6883H71.4681C71.4681 19.231 71.2937 18.782 70.9579 18.4455L53.7334 1.22101C53.397 0.884552 52.9472 0.710831 52.4899 0.710831L52.4906 0.706024H5.73486C2.82692 0.706024 0.461426 3.07152 0.461426 5.97946V85.4326C0.461426 88.3405 2.82692 90.706 5.73486 90.706H66.1995C69.1068 90.706 71.4729 88.3405 71.4729 85.4326V80.1468L80.286 88.9606C81.4478 90.1224 82.9742 90.7033 84.5013 90.7033C86.0278 90.7033 87.5542 90.1224 88.716 88.9606C91.0396 86.6363 91.0396 82.8549 88.7153 80.5306ZM54.9543 74.5341C44.2928 74.5341 35.6184 65.8598 35.6184 55.1982C35.6184 44.5367 44.2928 35.8623 54.9543 35.8623C65.6158 35.8623 74.2902 44.5367 74.2902 55.1982C74.2902 65.8598 65.6158 74.5341 54.9543 74.5341ZM54.2484 6.70799L65.471 17.9312H56.0062C55.0367 17.9312 54.2484 17.1423 54.2484 16.1734V6.70799ZM67.9573 85.4326C67.9573 86.4021 67.1684 87.1904 66.1995 87.1904H5.73486C4.76532 87.1904 3.97705 86.4021 3.97705 85.4326V5.97946C3.97705 5.00992 4.76532 4.22165 5.73486 4.22165H50.7328V16.1727C50.7328 19.0807 53.0983 21.4462 56.0062 21.4462H67.9566V36.4178C64.2638 33.8525 59.7821 32.3466 54.9543 32.3466C42.3537 32.3466 32.1027 42.5976 32.1027 55.1982C32.1027 57.6585 32.4955 60.0294 33.2185 62.2521H11.7382C10.768 62.2521 9.98039 63.039 9.98039 64.0099C9.98039 64.9802 10.768 65.7677 11.7382 65.7677H34.1846C34.3501 65.7677 34.5108 65.743 34.6626 65.6998C38.4721 73.0304 46.1378 78.0498 54.9543 78.0498C59.0948 78.0498 62.9819 76.9422 66.3348 75.0086L67.9573 76.6312V85.4326ZM86.2296 86.4742C85.2766 87.428 83.7254 87.428 82.7724 86.4742L69.2832 72.9851C70.5549 71.9585 71.7139 70.7995 72.7405 69.5278L86.2296 83.0163C87.1834 83.97 87.1834 85.5212 86.2296 86.4742Z" fill="white"/>
<path fill-rule="evenodd" clip-rule="evenodd" d="M74.7645 66.5794L88.7151 80.5306C91.0394 82.8549 91.0394 86.6363 88.7158 88.9606C87.554 90.1224 86.0276 90.7033 84.5012 90.7033C82.9741 90.7033 81.4476 90.1224 80.2858 88.9606L71.4727 80.1468L67.9571 76.6312L66.3346 75.0086C62.9817 76.9422 59.0946 78.0498 54.9541 78.0498C46.1376 78.0498 38.4719 73.0304 34.6624 65.6998L33.2183 62.2521C32.4953 60.0294 32.1025 57.6585 32.1025 55.1982C32.1025 42.5976 42.3535 32.3466 54.9541 32.3466C59.7819 32.3466 64.2636 33.8525 67.9564 36.4178L71.4721 39.4232C75.3935 43.528 77.8057 49.0864 77.8057 55.1982C77.8057 59.3394 76.6981 63.2265 74.7645 66.5794ZM54.9541 74.5341C44.2926 74.5341 35.6182 65.8598 35.6182 55.1982C35.6182 44.5367 44.2926 35.8623 54.9541 35.8623C65.6157 35.8623 74.29 44.5367 74.29 55.1982C74.29 65.8598 65.6157 74.5341 54.9541 74.5341ZM86.2294 86.4742C85.2764 87.428 83.7252 87.428 82.7722 86.4742L69.283 72.9851C70.5547 71.9585 71.7138 70.7995 72.7403 69.5278L86.2294 83.0163C87.1832 83.97 87.1832 85.5212 86.2294 86.4742Z" fill="#FF5473"/>
<path d="M54.9541 47.2887C53.9832 47.2887 53.1963 48.0756 53.1963 49.0466C53.1963 50.0175 53.9832 50.8044 54.9541 50.8044C57.3766 50.8044 59.3479 52.7757 59.3479 55.1982C59.3479 56.1691 60.1348 56.956 61.1058 56.956C62.0767 56.956 62.8636 56.1691 62.8636 55.1982C62.8636 50.8366 59.3157 47.2887 54.9541 47.2887Z" fill="white"/>
<path d="M27.5579 50.0642H11.7383C10.7681 50.0642 9.98047 50.8511 9.98047 51.822C9.98047 52.7929 10.7681 53.5798 11.7383 53.5798H27.5579C28.5288 53.5798 29.3157 52.7929 29.3157 51.822C29.3157 50.8511 28.5288 50.0642 27.5579 50.0642Z" fill="white"/>
<path d="M28.5995 37.8769H11.7383C10.7681 37.8769 9.98047 38.6638 9.98047 39.6347C9.98047 40.6049 10.7681 41.3925 11.7383 41.3925H28.5995C29.5705 41.3925 30.3574 40.6049 30.3574 39.6347C30.3574 38.6638 29.5705 37.8769 28.5995 37.8769Z" fill="white"/>
<path d="M33.8599 74.4394C33.3971 74.4394 32.9439 74.6268 32.617 74.9544C32.2902 75.2812 32.1021 75.7344 32.1021 76.1972C32.1021 76.6593 32.2902 77.1132 32.617 77.4393C32.9439 77.7669 33.3971 77.955 33.8599 77.955C34.322 77.955 34.7758 77.7669 35.1041 77.4393C35.4309 77.1132 35.6177 76.6593 35.6177 76.1972C35.6177 75.7344 35.4309 75.2812 35.1041 74.9544C34.7758 74.6268 34.322 74.4394 33.8599 74.4394Z" fill="white"/>
<path d="M26.6405 74.4394H11.7383C10.7681 74.4394 9.98047 75.2263 9.98047 76.1972C9.98047 77.1674 10.7681 77.955 11.7383 77.955H26.6405C27.6108 77.955 28.3984 77.1674 28.3984 76.1972C28.3984 75.2263 27.6115 74.4394 26.6405 74.4394Z" fill="white"/>
<path d="M11.7373 29.2052C12.2015 29.2052 12.6533 29.0171 12.9801 28.6903C13.309 28.3614 13.4951 27.9102 13.4951 27.4474C13.4951 26.9853 13.309 26.5321 12.9801 26.2032C12.6533 25.8764 12.1994 25.6896 11.7373 25.6896C11.2752 25.6896 10.8234 25.8764 10.4945 26.2032C10.1676 26.5301 9.97949 26.9833 9.97949 27.4474C9.97949 27.9102 10.1676 28.3634 10.4945 28.6903C10.822 29.0171 11.2752 29.2052 11.7373 29.2052Z" fill="white"/>
<path d="M45.4614 25.6896H19.189C18.2187 25.6896 17.4312 26.4765 17.4312 27.4474C17.4312 28.4177 18.2187 29.2052 19.189 29.2052H45.4614C46.4323 29.2052 47.2192 28.4177 47.2192 27.4474C47.2192 26.4765 46.4323 25.6896 45.4614 25.6896Z" fill="white"/>
<path d="M11.7383 17.0173H45.4615C46.4324 17.0173 47.2193 16.2304 47.2193 15.2595C47.2193 14.2886 46.4324 13.5017 45.4615 13.5017H11.7383C10.7681 13.5017 9.98047 14.2886 9.98047 15.2595C9.98047 16.2304 10.7681 17.0173 11.7383 17.0173Z" fill="white"/>
</g>
<defs>
<clipPath id="clip0_356_442">
<rect width="90" height="90" fill="white" transform="translate(0.285645 0.706024)"/>
</clipPath>
</defs>
</svg>
