<svg width="71" height="33" viewBox="0 0 71 33" fill="none" xmlns="http://www.w3.org/2000/svg">
<path d="M70.4747 16.6281C70.4747 17.2423 69.9765 17.7405 69.3622 17.7405L13.9841 17.7406C13.3696 17.7406 12.8716 17.2423 12.8716 16.6281C12.8716 16.0138 13.3696 15.5156 13.9841 15.5156L69.3622 15.5156C69.9767 15.5156 70.4747 16.0138 70.4747 16.6281Z" fill="#FF5473"/>
<path d="M9.03154 16.6281C9.03154 17.2423 8.53333 17.7406 7.91905 17.7406L1.5871 17.7406C0.972821 17.7406 0.474609 17.2423 0.474609 16.6281C0.474609 16.0138 0.972821 15.5156 1.5871 15.5156L7.91905 15.5156C8.53333 15.5156 9.03154 16.0138 9.03154 16.6281Z" fill="#FF5473"/>
<path d="M70.4747 16.628C70.4747 16.9644 70.3225 17.2827 70.0607 17.4939L51.6044 32.3808C51.126 32.7666 50.4257 32.6915 50.0401 32.2134C49.6544 31.7352 49.7293 31.0347 50.2075 30.649L67.5902 16.628L50.2075 2.60672C49.7295 2.22106 49.6542 1.52093 50.0401 1.04237C50.4257 0.563995 51.1262 0.48909 51.6044 0.874941L70.0607 15.7622C70.3225 15.9733 70.4747 16.2917 70.4747 16.628Z" fill="#FF5473"/>
</svg>
