<svg width="34" height="18" viewBox="0 0 34 18" fill="none" xmlns="http://www.w3.org/2000/svg">
<path d="M28.4523 8.23479C28.4609 9.21158 28.0747 10.1358 27.3656 10.8303L20.1394 17.8975L16.4211 17.9307L25.4949 9.05662C25.7284 8.82972 25.8466 8.5115 25.8264 8.18499C25.8033 7.86954 25.6419 7.57345 25.3854 7.36592C24.9011 7.00066 24.2065 7.04217 23.7597 7.47937L15.5535 15.5233C15.4411 15.623 15.3373 15.7253 15.2365 15.825C15.1615 15.8803 15.0866 15.9439 15.003 16.0076C13.4724 17.2694 11.5095 17.9722 9.43995 17.9916C7.14268 18.0027 4.98952 17.1642 3.36385 15.634C-0.0287373 12.4297 -0.0777335 7.18052 3.25144 3.93194L7.20609 0.0552376L10.9244 0.0220337L5.125 5.69459C2.81331 7.95532 2.8479 11.6079 5.20282 13.8271C6.34137 14.9007 7.85463 15.4846 9.45436 15.4708H9.46301C11.0627 15.4569 12.5645 14.8454 13.6713 13.7524L21.915 5.68905C22.6241 4.99728 23.581 4.60712 24.5956 4.59881H24.6043C25.6217 4.59051 26.5845 4.96131 27.3166 5.65032C28.0401 6.33103 28.4436 7.2497 28.4523 8.23479Z" fill="#E8E8E8"/>
<path d="M33.3611 8.2598C33.3611 10.4735 32.4675 12.5516 30.839 14.1067L26.8296 17.9474H23.1315L28.9856 12.3274C30.1069 11.251 30.7352 9.80661 30.7352 8.27087C30.7352 6.73513 30.1126 5.28794 28.9856 4.206C27.8471 3.11299 26.3396 2.5153 24.7398 2.5153C23.1401 2.5153 21.6326 3.11299 20.5056 4.1977L12.0919 12.2749C11.377 12.9611 10.4172 13.3402 9.3997 13.3402H9.39105C8.37357 13.3402 7.41373 12.9611 6.69889 12.2638C5.97541 11.5776 5.57764 10.6561 5.57764 9.67103C5.57764 8.68594 5.97253 7.7728 6.68736 7.08655L14.0778 -0.00830078H17.7961L8.55228 8.8741C8.31592 9.101 8.18621 9.41645 8.20351 9.7319C8.22368 10.0584 8.38222 10.3545 8.63587 10.562C9.11723 10.9328 9.81188 10.8968 10.2644 10.4624L18.6609 2.40184C18.7271 2.3299 18.8021 2.26626 18.8857 2.19431C18.952 2.13067 19.0269 2.07809 19.1019 2.01445C20.6641 0.713912 22.6703 -0.00830078 24.7485 -0.00830078C25.8957 -0.00830078 27.0169 0.207533 28.0431 0.614297C29.0778 1.02106 30.029 1.63536 30.839 2.41291C32.4675 3.96803 33.3611 6.04612 33.3611 8.2598Z" fill="#E8E8E8"/>
</svg>
