<svg width="52" height="29" viewBox="0 0 52 29" fill="none" xmlns="http://www.w3.org/2000/svg">
<path d="M43.8682 13.1816C43.8682 14.726 43.2438 16.1829 42.1136 17.2679L30.5791 28.341H24.7002L39.1833 14.4373C39.557 14.0785 39.7484 13.5798 39.7165 13.0635C39.6846 12.5648 39.4339 12.0923 39.0329 11.7641C38.2718 11.1779 37.1735 11.2348 36.458 11.9216L23.3603 24.5216C23.1826 24.6791 23.0186 24.8367 22.8545 24.9942C22.736 25.0817 22.6175 25.1823 22.4808 25.2785C20.0381 27.2516 16.93 28.3366 13.6533 28.3366C10.0212 28.3235 6.63053 26.9629 4.08301 24.5216C-1.23079 19.4073 -1.23079 11.1079 4.08301 6.01977L10.3949 -0.0527344H16.2738L7.01791 8.83289C3.3265 12.3766 3.3265 18.1473 7.01791 21.691C8.80436 23.406 11.1833 24.3466 13.7126 24.3466H13.7262C16.2555 24.3466 18.639 23.4016 20.4072 21.691L33.5641 9.06039C34.6943 7.97539 36.2119 7.37601 37.8206 7.37601H37.8343C39.443 7.37601 40.9606 7.97539 42.1045 9.07789C43.2347 10.1629 43.8591 11.6198 43.8591 13.1773" fill="#4E61FB"/>
<path d="M51.6201 13.0241C51.6201 16.5241 50.2074 19.8098 47.6325 22.2685L41.2933 28.341H35.4463L44.7022 19.4554C46.4749 17.7535 47.4684 15.4698 47.4684 13.0417C47.4684 10.6135 46.4841 8.3254 44.7022 6.61478C42.902 4.88665 40.5186 3.94166 37.9893 3.94166C35.46 3.94166 33.0765 4.88665 31.2946 6.60165L17.9919 19.3723C16.8617 20.4573 15.3441 21.0567 13.7354 21.0567H13.7217C12.113 21.0567 10.5954 20.4573 9.46518 19.3548C8.3213 18.2698 7.69238 16.8129 7.69238 15.2554C7.69238 13.6979 8.31673 12.2542 9.44694 11.1692L21.1318 -0.0483398H27.0107L12.3955 13.9954C12.0218 14.3541 11.8167 14.8529 11.8441 15.3517C11.876 15.8679 12.1266 16.336 12.5277 16.6642C13.2887 17.2504 14.387 17.1935 15.1025 16.5067L28.3779 3.76228C28.4828 3.64853 28.6012 3.54791 28.7334 3.43416C28.8382 3.33353 28.9567 3.25041 29.0752 3.14978C31.5453 1.09353 34.7171 -0.0483398 38.0029 -0.0483398C39.8167 -0.0483398 41.5895 0.29291 43.2119 0.936035C44.848 1.57916 46.3519 2.55041 47.6325 3.77979C50.2074 6.23853 51.6201 9.52415 51.6201 13.0241Z" fill="#4E61FB"/>
</svg>
