<svg width="104" height="104" viewBox="0 0 104 104" fill="none" xmlns="http://www.w3.org/2000/svg">
<g clip-path="url(#clip0_856_4264)">
<path fill-rule="evenodd" clip-rule="evenodd" d="M43.0754 101.353H61.0371V91.0634C61.0371 90.5523 61.3841 90.1044 61.881 89.9755C65.4025 89.0657 68.7813 87.6632 71.9236 85.8108C72.3656 85.5503 72.9281 85.6207 73.2911 85.9842L80.5689 93.2608L93.2698 80.5603L85.9918 73.2835C85.6288 72.9203 85.5575 72.3575 85.8182 71.9144C87.6732 68.7694 89.0745 65.3927 89.9833 61.8729C90.1118 61.3758 90.5601 61.0287 91.0732 61.0287L101.36 61.0285V43.0682H91.0727C90.5594 43.0682 90.1113 42.7212 89.9828 42.2241C89.0726 38.7019 87.6716 35.3228 85.8182 32.1805C85.5575 31.7395 85.6291 31.1767 85.992 30.8133L93.2698 23.5343L80.5689 10.8336L73.2908 18.1128C72.9279 18.476 72.3653 18.5466 71.9232 18.2862C68.7787 16.4311 65.3999 15.0289 61.881 14.1215C61.3841 13.9926 61.0368 13.5447 61.0368 13.0312V2.74352H43.0754V13.0309C43.0754 13.5445 42.7281 13.9926 42.231 14.1215C38.7118 15.0313 35.3328 16.4314 32.1888 18.2862C31.7464 18.5464 31.1838 18.4762 30.8209 18.1128L23.5433 10.8336L10.8424 23.5367L18.1201 30.8133C18.4831 31.1765 18.5545 31.7395 18.2938 32.1805C16.4397 35.325 15.0384 38.7042 14.1294 42.2241C14.0011 42.721 13.5528 43.0682 13.0395 43.0682H2.75207V61.0285H13.0397C13.553 61.0285 14.0011 61.3758 14.1296 61.8729C15.0396 65.3949 16.4409 68.7744 18.294 71.9165C18.555 72.3573 18.4834 72.9203 18.1204 73.2837L10.8426 80.5603L23.5433 93.2608L30.8214 85.9842C31.1843 85.6207 31.7471 85.5506 32.1893 85.8108C35.3343 87.6656 38.713 89.0657 42.2312 89.9755C42.7281 90.1041 43.0754 90.5523 43.0754 91.0658V101.353ZM62.1626 103.602H41.9498C41.3281 103.602 40.824 103.101 40.824 102.477V91.9264C37.6848 91.0449 34.6578 89.7902 31.8035 88.1863L24.3392 95.6503C23.8999 96.0889 23.1868 96.0889 22.7475 95.6503L8.45475 81.3576C8.24377 81.1464 8.12507 80.8605 8.12507 80.5603C8.12507 80.2625 8.24377 79.9764 8.45475 79.7654L15.9185 72.3011C14.3168 69.4494 13.0614 66.4222 12.1775 63.2798L1.62653 63.2796C1.005 63.2796 0.500977 62.7758 0.500977 62.1543V41.9425C0.500977 41.3212 1.005 40.8171 1.62653 40.8171L12.1775 40.8169C13.0602 37.6772 14.3158 34.6497 15.9185 31.7959L8.45475 24.3316C8.01518 23.8909 8.01518 23.1804 8.45475 22.7394L22.7475 8.44667C23.1868 8.00782 23.8999 8.00806 24.3392 8.44667L31.803 15.9107C34.6566 14.3068 37.6841 13.0521 40.824 12.1682V1.61774C40.824 0.996449 41.3278 0.492188 41.9496 0.492188H62.1626C62.7841 0.492188 63.2879 0.996449 63.2879 1.61797L63.2882 12.168C66.4277 13.0521 69.4551 14.3068 72.309 15.9107L79.773 8.44667C79.9842 8.23569 80.2703 8.11842 80.5689 8.11842C80.8674 8.11819 81.1538 8.23569 81.3647 8.44667L95.6574 22.7391C96.097 23.1801 96.097 23.8909 95.6574 24.3316L88.1934 31.7956C89.7956 34.6473 91.0508 37.6748 91.9347 40.8171L102.486 40.8169C103.108 40.8169 103.611 41.3212 103.611 41.9427V62.1543C103.611 62.7756 103.107 63.2798 102.486 63.2798L91.9354 63.2796C91.0525 66.4198 89.7971 69.4473 88.1934 72.3011L95.6574 79.7651C95.8687 79.9761 95.9871 80.2625 95.9871 80.5603C95.9874 80.8602 95.8687 81.1466 95.6574 81.3576L81.3647 95.6503C81.1538 95.8615 80.8674 95.9788 80.5689 95.9788C80.2703 95.9786 79.984 95.8615 79.773 95.6503L72.3094 88.1861C69.4568 89.7876 66.4298 91.0425 63.2882 91.9266V102.477C63.2882 103.101 62.7844 103.602 62.1626 103.602Z" fill="white"/>
<path fill-rule="evenodd" clip-rule="evenodd" d="M52.0558 20.1926C34.4902 20.1926 20.1998 34.4832 20.1998 52.0474C20.1998 69.6136 34.4902 83.9044 52.0556 83.9044C69.6212 83.9041 83.9118 69.6138 83.9118 52.0474C83.9118 34.4832 69.6212 20.1926 52.0558 20.1926ZM52.0558 86.1555C33.249 86.1555 17.9482 70.8542 17.9482 52.0474C17.9482 33.2404 33.249 17.9415 52.0556 17.9415C70.8626 17.9415 86.1629 33.2404 86.1629 52.0474C86.1629 70.8542 70.8626 86.1555 52.0558 86.1555Z" fill="white"/>
<path fill-rule="evenodd" clip-rule="evenodd" d="M65.6769 29.7158C63.7 29.7158 61.7569 30.4874 60.3136 31.9319C58.2718 33.9718 57.5718 36.9431 58.4861 39.6844C58.6286 40.1112 58.5035 40.5826 58.1686 40.8804L32.7039 63.6269C32.6882 63.6385 32.6722 63.6528 32.6561 63.6668C31.6052 64.5038 30.9594 65.7562 30.8842 67.0998C30.8086 68.4552 31.2962 69.7287 32.2581 70.6901C33.2195 71.6515 34.4976 72.1394 35.8517 72.0642C37.193 71.9893 38.4437 71.3444 39.2831 70.2914C39.2961 70.2774 39.3095 70.261 39.323 70.2446L62.0681 44.7801C62.3675 44.4447 62.8373 44.3205 63.2638 44.4635C66.0051 45.3781 68.9764 44.6771 71.018 42.6344C72.6625 40.9905 73.4361 38.6971 73.1882 36.4436L70.1246 39.506C69.8551 39.7758 69.4671 39.8907 69.0949 39.8134L64.8957 38.92C64.4604 38.8284 64.1205 38.4885 64.0283 38.0546L63.1368 33.8547C63.0573 33.4818 63.1722 33.095 63.4417 32.8253L66.5051 29.7602C66.2292 29.7298 65.9528 29.7158 65.6769 29.7158ZM35.5905 74.3224C33.7514 74.3224 31.9748 73.591 30.6661 72.2823C29.2661 70.8823 28.5261 68.9478 28.6362 66.9757C28.7466 65.0033 29.69 63.1649 31.2263 61.9269L56.1394 39.6749C55.2953 36.3285 56.2517 32.8089 58.7216 30.3397C61.4368 27.624 65.5151 26.7399 69.1127 28.086C69.4709 28.2196 69.7369 28.5269 69.818 28.902C69.8993 29.2748 69.7847 29.6641 69.5142 29.9363L65.4654 33.9837L66.0786 36.8703L68.9648 37.4823L73.0131 33.4347C73.2841 33.1628 73.6737 33.0503 74.0481 33.13C74.422 33.2121 74.7293 33.4773 74.8634 33.836C76.2095 37.4331 75.3247 41.5136 72.6097 44.2268C70.14 46.6982 66.6214 47.6551 63.2742 46.8086L41.022 71.7217C39.7837 73.2578 37.9468 74.203 35.977 74.3132C35.8481 74.32 35.719 74.3227 35.5905 74.3224Z" fill="white"/>
<path fill-rule="evenodd" clip-rule="evenodd" d="M36.2755 65.3244C35.9294 65.3244 35.5838 65.456 35.3205 65.7188C35.0655 65.9743 34.9252 66.312 34.9252 66.6731C34.9252 67.0342 35.0655 67.3743 35.3205 67.6276C35.8471 68.155 36.7039 68.1552 37.23 67.6276C37.4852 67.3741 37.6253 67.0342 37.6253 66.6731C37.6253 66.312 37.4852 65.9743 37.2303 65.7188C36.9672 65.456 36.6211 65.3247 36.2755 65.3244ZM36.275 70.2726C35.3531 70.2726 34.4309 69.9232 33.7287 69.2199C33.0485 68.5396 32.6738 67.6345 32.6738 66.6731C32.6738 65.7114 33.0485 64.8066 33.729 64.1263C35.1328 62.7242 37.4177 62.7242 38.8218 64.1263C39.502 64.8064 39.8769 65.7117 39.8769 66.6731C39.8769 67.6345 39.502 68.5398 38.8218 69.2199C38.1198 69.9232 37.1977 70.2726 36.275 70.2726Z" fill="white"/>
<path fill-rule="evenodd" clip-rule="evenodd" d="M61.1517 68.528L66.3936 73.7714C66.788 74.1655 67.316 74.3836 67.88 74.3812C68.4442 74.381 68.972 74.1655 69.3664 73.7716L72.112 71.0253C72.9317 70.2047 72.9317 68.8729 72.112 68.052L66.8703 62.811L66.7754 62.9045C65.5426 64.1383 63.5355 64.1383 62.3027 62.9048C61.7069 62.3089 61.3786 61.5142 61.3786 60.6677C61.3786 59.8209 61.7069 59.0284 62.3027 58.4328L62.3971 58.3367L60.8149 56.7537L55.0963 62.4733L56.6785 64.056L56.7737 63.9599C57.3693 63.3641 58.1635 63.0384 59.01 63.0384C59.8565 63.0384 60.6505 63.3643 61.2464 63.9623C61.8422 64.5579 62.1704 65.3507 62.1704 66.1972C62.1704 67.0435 61.8422 67.8387 61.2464 68.4343L61.1517 68.528ZM67.8802 76.6323C66.7147 76.6323 65.6213 76.1823 64.8014 75.3614L58.7641 69.3253C58.3243 68.8845 58.3243 68.1717 58.7641 67.7331L59.6546 66.842C59.8251 66.6708 59.9191 66.4434 59.9191 66.1972C59.9191 65.9532 59.8251 65.7234 59.6544 65.5524C59.4841 65.3833 59.255 65.2895 59.01 65.2895C58.765 65.2895 58.5359 65.3835 58.3654 65.5524L57.4744 66.4432C57.0348 66.8841 56.3222 66.8818 55.8826 66.4434L52.7084 63.2706C52.2691 62.8296 52.2691 62.1167 52.7084 61.6784L60.019 54.3666C60.2302 54.1554 60.5164 54.0383 60.8149 54.0383C61.1134 54.0381 61.3998 54.1556 61.6108 54.3666L64.785 57.5415C64.9962 57.7525 65.1147 58.0389 65.1147 58.3367C65.1149 58.6366 64.996 58.923 64.785 59.134L63.8944 60.025C63.7237 60.1939 63.6299 60.4237 63.6299 60.6677C63.6299 60.9139 63.7239 61.1437 63.8944 61.3125C64.2498 61.6689 64.828 61.6689 65.1836 61.3125L66.0744 60.4237C66.5142 59.9829 67.2266 59.9829 67.6662 60.4237L73.704 66.4598C75.4016 68.1574 75.4014 70.9199 73.704 72.6177L70.9584 75.3638C70.1387 76.1821 69.0458 76.6326 67.8802 76.6323Z" fill="white"/>
<path fill-rule="evenodd" clip-rule="evenodd" d="M45.8139 51.5312C45.5258 51.5312 45.2378 51.4235 45.018 51.203L37.5471 43.7318L34.449 42.8408C34.1885 42.7678 33.9642 42.6015 33.8163 42.3741L29.319 35.4703C29.0289 35.0248 29.0902 34.4363 29.4663 34.0588L32.4005 31.1251C32.7766 30.75 33.3653 30.6867 33.8108 30.9773L40.7154 35.475C40.9423 35.6227 41.1083 35.848 41.183 36.1082L42.0731 39.2058L49.7095 46.8411C50.1488 47.2819 50.1488 47.9952 49.7095 48.4336C49.2697 48.8743 48.5569 48.8746 48.1175 48.4336L40.2756 40.5916C40.1405 40.4558 40.042 40.2893 39.9894 40.1066L39.135 37.1329L33.347 33.3621L31.7038 35.006L35.4737 40.7935L38.4481 41.647C38.6315 41.701 38.7984 41.7997 38.9333 41.9334L46.6097 49.6107C47.0493 50.0491 47.0493 50.7622 46.6097 51.203C46.3902 51.4235 46.1019 51.5315 45.8139 51.5312ZM58.6264 58.4772C58.3383 58.4772 58.0503 58.367 57.8305 58.1465L54.515 54.8308C54.0754 54.3919 54.0754 53.6793 54.5148 53.2386C54.9543 52.8 55.6672 52.8 56.1067 53.2386L59.4223 56.5543C59.8621 56.9951 59.8621 57.7082 59.4223 58.1465C59.2025 58.3668 58.9147 58.4774 58.6264 58.4772ZM55.6924 61.4107C55.4043 61.4107 55.1161 61.3006 54.8965 61.0803L51.7463 57.9308C51.3067 57.4924 51.3067 56.7796 51.7463 56.3386C52.1859 55.9 52.8987 55.9002 53.3381 56.3386L56.4883 59.4902C56.9278 59.9286 56.9278 60.6417 56.4883 61.0803C56.2685 61.3006 55.9804 61.4109 55.6924 61.4107Z" fill="white"/>
</g>
<defs>
<clipPath id="clip0_856_4264">
<rect width="103.11" height="103.11" fill="white" transform="translate(0.500977 0.492188)"/>
</clipPath>
</defs>
</svg>
